<svg width="56" height="57" viewBox="0 0 56 57" fill="none" xmlns="http://www.w3.org/2000/svg">
<path d="M0.501781 56.8838L7.10003 56.8838L7.10003 50.0557L0.50178 50.0557L0.501781 56.8838ZM55.4351 0.873105C55.4351 0.411245 55.0733 0.0368358 54.627 0.0368384L47.354 0.0368385C46.9077 0.0368354 46.5459 0.411246 46.5459 0.873106C46.5459 1.33496 46.9077 1.70937 47.354 1.70937L53.8189 1.70937L53.8189 8.39951C53.8189 8.86136 54.1807 9.23577 54.627 9.23577C55.0733 9.23577 55.4351 8.86136 55.4351 8.39951L55.4351 0.873105ZM4.37233 54.0611L55.1984 1.46443L54.0556 0.281773L3.22948 52.8784L4.37233 54.0611Z" fill="#2D2D2D"/>
</svg>
